<mxfile host="app.diagrams.net" modified="2024-03-19T01:59:28.896Z" agent="Mozilla/5.0 (Windows NT 10.0; Win64; x64) AppleWebKit/537.36 (KHTML, like Gecko) Chrome/122.0.0.0 Safari/537.36" etag="0wfwK8plghN6ypZ24qw4" version="24.0.0" type="device">
  <diagram name="Page-1" id="u219iSjDwOBKqP0wg-jq">
    <mxGraphModel dx="651" dy="441" grid="1" gridSize="10" guides="1" tooltips="1" connect="1" arrows="1" fold="1" page="1" pageScale="1" pageWidth="850" pageHeight="1100" math="0" shadow="0">
      <root>
        <mxCell id="0" />
        <mxCell id="1" parent="0" />
        <mxCell id="iFpmS3egHmpwCthfmW_--9" value="" style="strokeColor=#6c8ebf;shadow=1;strokeWidth=1;rounded=1;absoluteArcSize=1;arcSize=2;fillColor=#dae8fc;" vertex="1" parent="1">
          <mxGeometry x="120" y="170" width="190" height="350" as="geometry" />
        </mxCell>
        <mxCell id="iFpmS3egHmpwCthfmW_--10" value="Firebase" style="sketch=0;dashed=0;connectable=0;html=1;fillColor=#5184F3;strokeColor=none;shape=mxgraph.gcp2.firebase;part=1;labelPosition=right;verticalLabelPosition=middle;align=left;verticalAlign=middle;spacingLeft=5;fontColor=#999999;fontSize=12;" vertex="1" parent="iFpmS3egHmpwCthfmW_--9">
          <mxGeometry width="32.4" height="45" relative="1" as="geometry">
            <mxPoint x="5" y="7" as="offset" />
          </mxGeometry>
        </mxCell>
        <mxCell id="iFpmS3egHmpwCthfmW_--6" value="&lt;b&gt;Backend&lt;/b&gt;&lt;div&gt;- Rest API&lt;/div&gt;&lt;div&gt;- Firebase Functions&lt;/div&gt;&lt;div&gt;- nodejs&lt;/div&gt;" style="rounded=1;whiteSpace=wrap;html=1;" vertex="1" parent="iFpmS3egHmpwCthfmW_--9">
          <mxGeometry x="43.00000000000006" y="150" width="114" height="60" as="geometry" />
        </mxCell>
        <mxCell id="iFpmS3egHmpwCthfmW_--4" style="edgeStyle=orthogonalEdgeStyle;rounded=0;orthogonalLoop=1;jettySize=auto;html=1;exitX=0.9;exitY=0.5;exitDx=0;exitDy=0;exitPerimeter=0;entryX=0;entryY=0.5;entryDx=0;entryDy=0;" edge="1" parent="1" source="iFpmS3egHmpwCthfmW_--2" target="iFpmS3egHmpwCthfmW_--3">
          <mxGeometry relative="1" as="geometry" />
        </mxCell>
        <mxCell id="iFpmS3egHmpwCthfmW_--12" value="Internet" style="edgeLabel;html=1;align=center;verticalAlign=middle;resizable=0;points=[];" vertex="1" connectable="0" parent="iFpmS3egHmpwCthfmW_--4">
          <mxGeometry x="-0.6423" y="1" relative="1" as="geometry">
            <mxPoint as="offset" />
          </mxGeometry>
        </mxCell>
        <mxCell id="iFpmS3egHmpwCthfmW_--2" value="User" style="shape=actor;whiteSpace=wrap;html=1;" vertex="1" parent="1">
          <mxGeometry x="30" y="230" width="40" height="40" as="geometry" />
        </mxCell>
        <mxCell id="iFpmS3egHmpwCthfmW_--5" style="edgeStyle=orthogonalEdgeStyle;rounded=0;orthogonalLoop=1;jettySize=auto;html=1;exitX=0.5;exitY=1;exitDx=0;exitDy=0;" edge="1" parent="1" source="iFpmS3egHmpwCthfmW_--3" target="iFpmS3egHmpwCthfmW_--6">
          <mxGeometry relative="1" as="geometry">
            <mxPoint x="220.20000000000005" y="360" as="targetPoint" />
          </mxGeometry>
        </mxCell>
        <mxCell id="iFpmS3egHmpwCthfmW_--3" value="&lt;b&gt;Frontend&lt;/b&gt;&lt;div&gt;(Firebase hosting)&lt;/div&gt;" style="rounded=1;whiteSpace=wrap;html=1;" vertex="1" parent="1">
          <mxGeometry x="180" y="220" width="80" height="60" as="geometry" />
        </mxCell>
        <mxCell id="iFpmS3egHmpwCthfmW_--7" value="&lt;b&gt;Firestore&lt;/b&gt;" style="shape=cylinder3;whiteSpace=wrap;html=1;boundedLbl=1;backgroundOutline=1;size=15;" vertex="1" parent="1">
          <mxGeometry x="170" y="420" width="100" height="80" as="geometry" />
        </mxCell>
        <mxCell id="iFpmS3egHmpwCthfmW_--8" style="edgeStyle=orthogonalEdgeStyle;rounded=0;orthogonalLoop=1;jettySize=auto;html=1;exitX=0.5;exitY=1;exitDx=0;exitDy=0;entryX=0.5;entryY=0;entryDx=0;entryDy=0;entryPerimeter=0;" edge="1" parent="1" source="iFpmS3egHmpwCthfmW_--6" target="iFpmS3egHmpwCthfmW_--7">
          <mxGeometry relative="1" as="geometry" />
        </mxCell>
        <mxCell id="iFpmS3egHmpwCthfmW_--15" value="" style="group" vertex="1" connectable="0" parent="1">
          <mxGeometry x="380" y="460" width="120" height="60" as="geometry" />
        </mxCell>
        <mxCell id="iFpmS3egHmpwCthfmW_--11" value="Github" style="rounded=0;whiteSpace=wrap;html=1;" vertex="1" parent="iFpmS3egHmpwCthfmW_--15">
          <mxGeometry width="120" height="60" as="geometry" />
        </mxCell>
        <mxCell id="iFpmS3egHmpwCthfmW_--14" value="" style="shape=image;html=1;verticalAlign=top;verticalLabelPosition=bottom;labelBackgroundColor=#ffffff;imageAspect=0;aspect=fixed;image=https://cdn4.iconfinder.com/data/icons/ionicons/512/icon-social-github-128.png;imageBackground=#121212;" vertex="1" parent="iFpmS3egHmpwCthfmW_--15">
          <mxGeometry width="18" height="18" as="geometry" />
        </mxCell>
        <mxCell id="iFpmS3egHmpwCthfmW_--16" style="edgeStyle=orthogonalEdgeStyle;rounded=0;orthogonalLoop=1;jettySize=auto;html=1;exitX=0;exitY=0.5;exitDx=0;exitDy=0;entryX=1;entryY=0.75;entryDx=0;entryDy=0;" edge="1" parent="1" source="iFpmS3egHmpwCthfmW_--11" target="iFpmS3egHmpwCthfmW_--9">
          <mxGeometry relative="1" as="geometry" />
        </mxCell>
        <mxCell id="iFpmS3egHmpwCthfmW_--18" style="edgeStyle=orthogonalEdgeStyle;rounded=0;orthogonalLoop=1;jettySize=auto;html=1;exitX=0.1;exitY=0.5;exitDx=0;exitDy=0;exitPerimeter=0;entryX=1;entryY=0.5;entryDx=0;entryDy=0;" edge="1" parent="1" source="iFpmS3egHmpwCthfmW_--17" target="iFpmS3egHmpwCthfmW_--11">
          <mxGeometry relative="1" as="geometry" />
        </mxCell>
        <mxCell id="iFpmS3egHmpwCthfmW_--17" value="Bailey" style="shape=actor;whiteSpace=wrap;html=1;" vertex="1" parent="1">
          <mxGeometry x="530" y="470" width="40" height="40" as="geometry" />
        </mxCell>
        <mxCell id="iFpmS3egHmpwCthfmW_--21" style="edgeStyle=orthogonalEdgeStyle;rounded=0;orthogonalLoop=1;jettySize=auto;html=1;exitX=0.1;exitY=0.5;exitDx=0;exitDy=0;exitPerimeter=0;entryX=0.5;entryY=1;entryDx=0;entryDy=0;" edge="1" parent="1" source="iFpmS3egHmpwCthfmW_--20" target="iFpmS3egHmpwCthfmW_--11">
          <mxGeometry relative="1" as="geometry" />
        </mxCell>
        <mxCell id="iFpmS3egHmpwCthfmW_--20" value="Jason" style="shape=actor;whiteSpace=wrap;html=1;" vertex="1" parent="1">
          <mxGeometry x="520" y="530" width="40" height="40" as="geometry" />
        </mxCell>
      </root>
    </mxGraphModel>
  </diagram>
</mxfile>
